<svg xmlns="http://www.w3.org/2000/svg" viewBox="0 0 113.8 88.34"><defs><style>.cls-2{fill:#fff;}</style></defs><g id="Layer_2" data-name="Layer 2"><g id="Layer_3" data-name="Layer 3"><path class="cls-2" d="M110.55,38.06c-2.71-10.56-8.57-22.55-14.24-31A74.61,74.61,0,0,0,85.13,2.53,64.16,64.16,0,0,0,73,0L69.85,6.22l-2.4-.41a62.28,62.28,0,0,0-21.1,0L44,6.22,40.78,0A64.09,64.09,0,0,0,28.67,2.53,74.49,74.49,0,0,0,17.5,7.08C11.82,15.51,6,27.5,3.26,38.06A106.08,106.08,0,0,0,.44,73.59c4.77,4,8.39,5.91,13.23,8.39a128.06,128.06,0,0,0,15.54,6.36c1.25-1.68,2.42-3.52,3.56-5.32,1-1.57,1.9-3.16,2.8-4.8l-9.69-4.63,2-2a58.59,58.59,0,0,0,13.3,4.88A66.3,66.3,0,0,0,56.9,78.07h0a66.32,66.32,0,0,0,15.7-1.62,58.76,58.76,0,0,0,13.3-4.88l2,2-9.69,4.63c.91,1.64,1.82,3.23,2.81,4.8,1.13,1.8,2.3,3.64,3.56,5.32A128.76,128.76,0,0,0,100.14,82c4.83-2.48,8.46-4.34,13.23-8.39A106.6,106.6,0,0,0,110.55,38.06Zm-.06,34a60.21,60.21,0,0,1-11.72,7.23,119,119,0,0,1-13,5.44c-.73-1.07-1.44-2.19-2.15-3.33-.38-.6-.76-1.22-1.15-1.88L93,74.47l-6.56-6.56-1.93,1a55.37,55.37,0,0,1-12.61,4.63,63.15,63.15,0,0,1-13.8,1.56H55.67a63.08,63.08,0,0,1-13.8-1.56,55,55,0,0,1-12.61-4.63l-1.94-1-6.55,6.56,10.6,5.07c-.39.66-.76,1.28-1.14,1.88-.72,1.14-1.43,2.26-2.16,3.33a116,116,0,0,1-13-5.44A60.21,60.21,0,0,1,3.31,72.08,104.52,104.52,0,0,1,6.16,38.81,105.89,105.89,0,0,1,19.55,9.42a69,69,0,0,1,10-4,64.06,64.06,0,0,1,9.52-2.16l3.23,6.31,4.57-.79a59.72,59.72,0,0,1,20.08,0l4.58.79,3.22-6.31A63.78,63.78,0,0,1,84.26,5.4a69.68,69.68,0,0,1,10,4,106.14,106.14,0,0,1,13.38,29.39A104.23,104.23,0,0,1,110.49,72.08Z"/><path class="cls-2" d="M38,36.87c-5.69,0-10.31,5.23-10.31,11.68S32.27,60.23,38,60.23,48.26,55,48.26,48.55,43.65,36.87,38,36.87Zm0,20.37c-4,0-7.31-3.9-7.31-8.69s3.28-8.68,7.31-8.68,7.3,3.89,7.3,8.68S42,57.24,38,57.24Z"/><path class="cls-2" d="M75.87,36.87c-5.69,0-10.3,5.23-10.3,11.68s4.61,11.68,10.3,11.68S86.17,55,86.17,48.55,81.56,36.87,75.87,36.87Zm0,20.37c-4,0-7.3-3.9-7.3-8.69s3.28-8.68,7.3-8.68,7.3,3.89,7.3,8.68S79.9,57.24,75.87,57.24Z"/></g></g></svg>