<?xml version="1.0" standalone="no"?>
<!DOCTYPE svg PUBLIC "-//W3C//DTD SVG 20010904//EN"
 "http://www.w3.org/TR/2001/REC-SVG-20010904/DTD/svg10.dtd">
<svg version="1.0" xmlns="http://www.w3.org/2000/svg"
 width="1132.000000pt" height="1132.000000pt" viewBox="0 0 1132.000000 1132.000000"
 preserveAspectRatio="xMidYMid meet">
<metadata>
Created by potrace 1.12, written by Peter Selinger 2001-2015
</metadata>
<g transform="translate(0.000000,1132.000000) scale(0.100000,-0.100000)"
fill="#23dcc8" stroke="none">
<path d="M1646 11309 c-429 -38 -836 -234 -1138 -548 -282 -292 -453 -659
-497 -1063 -6 -55 -11 -312 -11 -588 l0 -490 1345 0 1345 0 0 1350 0 1350
-472 -1 c-260 -1 -517 -6 -572 -10z"/>
<path d="M4310 7815 l0 -3505 3505 0 3505 0 0 2608 c0 1619 -4 2652 -10 2727
-46 563 -335 1056 -800 1367 -258 172 -547 272 -865 298 -75 6 -1108 10 -2727
10 l-2608 0 0 -3505z"/>
<path d="M0 5660 l0 -1350 1345 0 1345 0 0 1350 0 1350 -1345 0 -1345 0 0
-1350z"/>
<path d="M0 2198 c0 -272 5 -533 10 -583 98 -850 755 -1507 1605 -1605 50 -5
311 -10 583 -10 l492 0 0 1345 0 1345 -1345 0 -1345 0 0 -492z"/>
<path d="M4310 1345 l0 -1345 1350 0 1350 0 0 1345 0 1345 -1350 0 -1350 0 0
-1345z"/>
<path d="M8620 1345 l0 -1345 490 0 c276 0 533 5 588 11 539 58 1013 346 1317
799 119 178 222 425 264 635 33 164 41 316 41 793 l0 452 -1350 0 -1350 0 0
-1345z"/>
</g>
</svg>
