<svg xmlns="http://www.w3.org/2000/svg" viewBox="0 0 80.57 80.57"><defs><style>.cls-1{fill:#fff;}</style></defs><g id="Layer_2" data-name="Layer 2"><g id="Layer_1-2" data-name="Layer 1"><path class="cls-1" d="M40.29,0A40.29,40.29,0,1,0,80.57,40.29,40.29,40.29,0,0,0,40.29,0Zm0,73.65A33.37,33.37,0,1,1,73.65,40.29,33.37,33.37,0,0,1,40.29,73.65Z"/><path class="cls-1" d="M32.92,52.54a7.66,7.66,0,0,1-3.94-1,7.27,7.27,0,0,1-2.66-2.68,7.41,7.41,0,0,1-1-3.74V32.94H18.71V28H37.85v4.9H31.24v12.7a1.93,1.93,0,0,0,.58,1.4,1.83,1.83,0,0,0,1.38.6h1.92v4.9Z"/><path class="cls-1" d="M39.88,52.54,46.29,42a9.3,9.3,0,0,1-2.94-1.87,8.19,8.19,0,0,1-1.91-2.82,9.7,9.7,0,0,1-.68-3.71V28h5.88V34a3.91,3.91,0,0,0,.37,1.7,3.23,3.23,0,0,0,1.05,1.29,3.42,3.42,0,0,0,1.59.65L55.32,28h6.54l-6.4,10.32a9.29,9.29,0,0,1,3.36,1.75A7.84,7.84,0,0,1,61,43a9.44,9.44,0,0,1,.77,3.91v5.6H55.91V46.66a3.85,3.85,0,0,0-1-2.68,3.53,3.53,0,0,0-2.73-1.14l-5.77,9.7Z"/></g></g></svg>
